<?xml version="1.0" encoding="UTF-8" standalone="no"?>
<!DOCTYPE svg PUBLIC "-//W3C//DTD SVG 1.1//EN"
 "http://www.w3.org/Graphics/SVG/1.1/DTD/svg11.dtd">
<!-- Generated by graphviz version 2.43.0 (0)
 -->
<!-- Title: G Pages: 1 -->
<svg width="203pt" height="276pt"
 viewBox="0.00 0.00 203.00 276.00" xmlns="http://www.w3.org/2000/svg" xmlns:xlink="http://www.w3.org/1999/xlink">
<g id="graph0" class="graph" transform="scale(1 1) rotate(0) translate(4 272)">
<title>G</title>
<polygon fill="white" stroke="transparent" points="-4,4 -4,-272 199,-272 199,4 -4,4"/>
<g id="clust1" class="cluster">
<title>cluster_Global</title>
<polygon fill="none" stroke="black" points="8,-8 8,-260 187,-260 187,-8 8,-8"/>
<text text-anchor="middle" x="97.5" y="-247.2" font-family="Times,serif" font-size="11.00" fill="gray">Global</text>
</g>
<g id="clust2" class="cluster">
<title>cluster_\digitalzenworks</title>
<polygon fill="none" stroke="black" points="16,-16 16,-232 179,-232 179,-16 16,-16"/>
<text text-anchor="middle" x="97.5" y="-219.2" font-family="Times,serif" font-size="11.00" fill="gray">digitalzenworks</text>
</g>
<g id="clust3" class="cluster">
<title>cluster_\digitalzenworks\ConsumerProvider</title>
<polygon fill="none" stroke="black" points="24,-24 24,-204 171,-204 171,-24 24,-24"/>
<text text-anchor="middle" x="97.5" y="-191.2" font-family="Times,serif" font-size="11.00" fill="gray">ConsumerProvider</text>
</g>
<!-- \\digitalzenworks\\ConsumerProvider\\Processor -->
<g id="node1" class="node">
<title>\\digitalzenworks\\ConsumerProvider\\Processor</title>
<polygon fill="none" stroke="black" points="136,-176 59,-176 59,-140 136,-140 136,-176"/>
<text text-anchor="middle" x="97.5" y="-155.2" font-family="Courier,monospace" font-size="11.00">Processor</text>
</g>
<!-- \\digitalzenworks\\ConsumerProvider\\ConsumerInterface -->
<g id="node2" class="node">
<title>\\digitalzenworks\\ConsumerProvider\\ConsumerInterface</title>
<polygon fill="none" stroke="black" points="163,-122 32,-122 32,-86 163,-86 163,-122"/>
<text text-anchor="middle" x="97.5" y="-101.2" font-family="Courier,monospace" font-size="11.00">ConsumerInterface</text>
</g>
<!-- \\digitalzenworks\\ConsumerProvider\\ProviderInterface -->
<g id="node3" class="node">
<title>\\digitalzenworks\\ConsumerProvider\\ProviderInterface</title>
<polygon fill="none" stroke="black" points="163,-68 32,-68 32,-32 163,-32 163,-68"/>
<text text-anchor="middle" x="97.5" y="-47.2" font-family="Courier,monospace" font-size="11.00">ProviderInterface</text>
</g>
</g>
</svg>
